<svg fill="none" height="82" viewBox="0 0 18 82" width="18" xmlns="http://www.w3.org/2000/svg"><g fill="#f8f8f8" stroke="#f8f8f8"><path d="m11.0863 15.2226 3.7793.8228 1.5848-2.7035c1.3411-4.34905 1.9262-11.4956-1.5848-12.3419-2.1944.11754-6.02244 3.12662-3.7793 14.2226z"/><path d="m10.9645 16.9857 3.4135.7053c.3251.1959.4876 1.0814-1.4629 3.0561-1.1379.5485-3.12096.5642-1.9506-3.7614z"/><path d="m7.41469 35.2226-3.78142.8228-1.58578-2.7035c-1.341813-4.349-1.927271-11.4956 1.58578-12.3419 2.19566.1175 6.02587 3.1266 3.78142 14.2226z"/><path d="m7.53662 36.9857-3.41547.7053c-.32529.1959-.48793 1.0814 1.46377 3.0561 1.13849.5485 3.12272.5642 1.9517-3.7614z"/><path d="m11.0863 55.2226 3.7793.8228 1.5848-2.7035c1.3411-4.349 1.9262-11.4956-1.5848-12.3419-2.1944.1175-6.02244 3.1266-3.7793 14.2226z"/><path d="m10.9645 56.9857 3.4135.7053c.3251.1959.4876 1.0814-1.4629 3.0561-1.1379.5485-3.12096.5642-1.9506-3.7614z"/><path d="m7.41469 75.2226-3.78142.8228-1.58578-2.7035c-1.341813-4.349-1.927271-11.4956 1.58578-12.3419 2.19566.1175 6.02587 3.1266 3.78142 14.2226z"/><path d="m7.53662 76.9857-3.41547.7053c-.32529.1959-.48793 1.0814 1.46377 3.0561 1.13849.5485 3.12272.5642 1.9517-3.7614z"/></g></svg>