<svg fill="none" height="180" viewBox="0 0 182 180" width="182" xmlns="http://www.w3.org/2000/svg" xmlns:xlink="http://www.w3.org/1999/xlink"><radialGradient id="a" cx="0" cy="0" gradientTransform="matrix(-90.2743 0 0 -90.2743 91.0172 89.5607)" gradientUnits="userSpaceOnUse" r="1"><stop offset="0" stop-color="#afeeff"/><stop offset=".193" stop-color="#bbf1ff"/><stop offset=".703" stop-color="#d7f8ff"/><stop offset="1" stop-color="#e1faff"/></radialGradient><path d="m32.8743 85.8854c0-.0279.0023-.0505.0052-.0505s.0052.0226.0052.0505c0 .0278-.0023.0505-.0052.0505s-.0052-.0227-.0052-.0505z" fill="#fff2ff"/><path d="m7.14012 51.2003h9.95398c3.1276 0 5.6864-2.5589 5.6864-5.6864s-2.5588-5.6864-5.6864-5.6864h-5.6863c-5.25996 0-9.43945-4.805-8.35904-10.2355.79609-4.0658 4.60598-6.8237 8.72864-6.8237l40.8623-.0227c2.3599 0 4.2648-1.905 4.2648-4.2648 0-2.3599-1.9049-4.2648-4.2648-4.2648h-16.8032c-3.2412 0-6.2551-2.0472-7.108-5.17464-1.2794-4.7197 2.3029-9.04136 6.8521-9.04136h139.0494c3.241 0 6.255 2.0471 7.108 5.17462 1.279 4.7197-2.303 9.04138-6.852 9.04138h-5.681c-1.962 0-3.753.796-5.033 2.0755-1.279 1.2794-2.075 3.0706-2.075 5.0325 0 3.9235 3.185 7.108 7.108 7.108h4.265c4.691 0 8.529 3.8382 8.529 8.5295s-3.838 8.5296-8.529 8.5296h-34.118s0 76.7659.142 76.7659h29.711c7.037 0 12.794 5.758 12.794 12.794 0 7.038-5.757 12.795-12.794 12.795h-14.216c-3.923 0-7.108 3.185-7.108 7.108 0 3.924 3.185 7.108 7.108 7.108h9.951c4.72 0 8.53 3.81 8.53 8.53 0 4.719-3.81 8.529-8.53 8.529h-156.37544c-4.7197 0-8.5295869-3.81-8.5295869-8.529 0-4.72 3.8098869-8.53 8.5295869-8.53h9.95114c3.9236 0 7.108-3.184 7.108-7.108 0-3.923-3.1844-7.108-7.108-7.108h-2.8432c-7.03686 0-12.79433-5.757-12.79433-12.795 0-7.036 5.75747-12.794 12.79433-12.794h35.54v-56.8635l-43.81649.0228c-3.24124 0-6.25503-2.0472-7.107992-5.1747-1.251006-4.7225 2.331422-9.0413 6.852102-9.0413z" fill="url(#a)"/><path d="m113.976 36.1399-36.7283-11.478c-3.9891-1.2454-8.2653-1.2056-12.2315.1166l-30.7179 10.2383c-3.4829 1.1628-5.8314 4.4212-5.8314 8.0917v100.2005c0 5.029 4.9273 8.58 9.6982 6.991l30.3368-10.113c1.6974-.566 3.5313-.583 5.2429-.049l36.7282 11.478c3.99 1.245 8.266 1.206 12.232-.116l30.718-10.239c3.482-1.163 5.831-4.421 5.831-8.091v-100.2003c0-5.0296-4.927-8.5808-9.699-6.9914l-30.337 10.1133c-1.696.5657-3.53.5828-5.242.0483z" fill="#fc9fad"/><path d="m149.555 25.9783-30.337 10.1133c-.846.2814-1.728.4293-2.612.4378v115.9936c2.061-.02 4.117-.36 6.096-1.021l30.718-10.241c3.485-1.163 5.834-4.421 5.834-8.091v-100.2003c0-5.0296-4.927-8.5808-9.699-6.9914z" fill="#fc9fad"/><path d="m116.606 36.5265c-.887.0085-1.774-.1193-2.631-.3866l-36.7274-11.478c-1.996-.6227-4.0658-.924-6.1329-.9041v115.9902c.8871-.008 1.7742.121 2.63.388l36.7283 11.478c1.996.622 4.066.923 6.133.904z" fill="#ff95a0"/><path d="m116.606 56.8639c-14.136 0-25.5888 12.0381-25.5888 26.8739 0 11.532 15.4618 35.2812 22.3478 45.2862 1.567 2.275 4.918 2.275 6.482 0 6.886-10.008 22.348-33.7656 22.348-45.2862 0-14.8358-11.453-26.8739-25.589-26.8739z" fill="#fff"/><path d="m116.606 71.0799c-6.281 0-11.373 5.0918-11.373 11.3728s5.092 11.3728 11.373 11.3728 11.373-5.0918 11.373-11.3728-5.092-11.3728-11.373-11.3728z" fill="#ff95a0"/></svg>